<?xml version="1.0" encoding="UTF-8"?>
<svg id="Layer_1" xmlns="http://www.w3.org/2000/svg" version="1.1" viewBox="0 0 477.67 79.73">
  <!-- Generator: Adobe Illustrator 29.8.6, SVG Export Plug-In . SVG Version: 2.1.1 Build 1)  -->
  <defs>
    <style>
      .st0 {
        fill: none;
      }

      .st1 {
        fill: #fff;
      }
    </style>
  </defs>
  <path class="st0" d="M136.76,62.47c1.27-.85,1.91-2.38,1.91-4.56,0-3.49-2.14-5.18-6.54-5.18h-6.02v10.82h5.33c2.46,0,4.25-.36,5.33-1.08Z"/>
  <path class="st0" d="M173.07,61.89c1.2-.9,1.8-2.28,1.8-4.09,0-3.41-2.01-5.06-6.13-5.06h-7.44v10.41h7.28c1.9,0,3.41-.42,4.49-1.25Z"/>
  <path class="st0" d="M213.47,72.46c1.4-2.08,2.11-4.81,2.11-8.11,0-3.65-.81-6.56-2.4-8.62-1.58-2.05-3.78-3.09-6.54-3.09s-5.13,1.2-6.68,3.56c-1.38,2.1-2.08,4.85-2.08,8.16s.7,6.08,2.08,8.14c1.55,2.3,3.81,3.46,6.73,3.46s5.21-1.17,6.79-3.5Z"/>
  <path class="st0" d="M395.21,72.46c1.4-2.08,2.11-4.81,2.11-8.11,0-3.65-.81-6.56-2.4-8.62-1.58-2.05-3.78-3.09-6.54-3.09s-5.13,1.2-6.68,3.56c-1.38,2.1-2.08,4.85-2.08,8.16s.7,6.08,2.08,8.14c1.55,2.3,3.81,3.46,6.73,3.46s5.21-1.17,6.79-3.5Z"/>
  <path class="st0" d="M297.14,72.46c1.4-2.08,2.11-4.81,2.11-8.11,0-3.65-.81-6.56-2.4-8.62-1.58-2.05-3.78-3.09-6.54-3.09s-5.13,1.2-6.68,3.56c-1.38,2.1-2.08,4.85-2.08,8.16s.7,6.08,2.08,8.14c1.55,2.3,3.81,3.46,6.73,3.46s5.21-1.17,6.79-3.5Z"/>
  <path class="st0" d="M288.39,28.33c2.93,0,5.21-1.15,6.79-3.41,1.4-2.02,2.11-4.68,2.11-7.89,0-3.56-.81-6.38-2.4-8.4-1.59-2-3.79-3.01-6.54-3.01s-5.14,1.17-6.68,3.47c-1.38,2.05-2.08,4.72-2.08,7.94s.7,5.92,2.08,7.92c1.55,2.24,3.81,3.38,6.73,3.38Z"/>
  <path class="st1" d="M82.79,8.22c-2.76-1.77-6.77-2.83-12.03-3.19l-1.35,1.66c3.62.51,6.31,2.02,8.06,4.51,2.05,2.95,3.09,7.81,3.13,14.54-.04,6.75-1.08,11.6-3.13,14.56-2.2,3.13-5.87,4.7-11.02,4.7h-9.19v-23.18l-8.72,10.86v44.13h-5.06v1.68h18.63v-1.68h-4.85v-30.15h9.19c7.41,0,12.86-1.13,16.33-3.38,4.22-2.69,6.33-7.29,6.33-13.83v-7.41c0-6.54-2.11-11.14-6.33-13.83Z"/>
  <path class="st1" d="M28.19,65.18c-1.4,3.52-3.12,6.26-5.17,8.25-2.54,2.51-5.52,3.76-8.94,3.76-4.23,0-7.73-2.11-10.48-6.31-.51-.78-.97-1.59-1.34-2.42v6.53c3.39,2.37,7.32,3.55,11.82,3.55,2.3,0,4.6-.3,6.91-.88h10.75l2.29-24.42h-2.87c-.39,4.01-1.37,7.98-2.97,11.94Z"/>
  <path class="st1" d="M20.99,4c-2.33-.59-4.63-.89-6.91-.89-4.5,0-8.43,1.17-11.82,3.55v6.53c.39-.83.83-1.63,1.34-2.4,2.75-4.18,6.25-6.26,10.48-6.26,3.42,0,6.4,1.23,8.94,3.69,2.05,1.99,3.77,4.74,5.17,8.25,1.6,3.96,2.58,7.94,2.97,11.94h2.87l-2.29-24.41h-10.75Z"/>
  <path class="st1" d="M130.97,30.85c5.71,0,9.32-3.16,10.73-9.39l.06-.25h-2.68l-.04.16c-.52,2.06-1.42,3.73-2.68,4.96-1.36,1.33-3.01,2-4.89,2-2.99,0-5.24-1.2-6.66-3.55-1.18-1.96-1.79-4.62-1.79-7.9s.66-5.92,1.95-7.91c1.44-2.22,3.54-3.34,6.24-3.34,2.08,0,3.74.45,4.94,1.34,1.27.94,2.17,2.45,2.67,4.51l.04.16h2.62l-.04-.24c-.43-2.64-1.52-4.71-3.22-6.15-1.66-1.41-3.8-2.12-6.35-2.12-3.56,0-6.36,1.06-8.35,3.16-2.22,2.35-3.34,5.96-3.34,10.71,0,3.98.85,7.24,2.52,9.69,1.9,2.77,4.68,4.18,8.26,4.18Z"/>
  <path class="st1" d="M170.07,30.85c3.26,0,5.79-.96,7.5-2.85,1.68-1.87,2.53-4.59,2.53-8.08V3.11h-2.84v16c0,3.19-.54,5.53-1.62,6.94-1.11,1.46-2.99,2.2-5.57,2.2s-4.34-.71-5.43-2.11c-1.1-1.42-1.66-3.78-1.66-7.04V3.11h-2.84v16.81c0,3.47.83,6.17,2.47,8.03,1.68,1.93,4.2,2.9,7.47,2.9Z"/>
  <path class="st1" d="M207.56,28.33c-1.9,0-3.47-.48-4.66-1.41-1.32-1.04-2.11-2.6-2.35-4.64l-.02-.18h-2.45v.21c.06,2.73.95,4.87,2.64,6.39,1.62,1.43,3.78,2.16,6.43,2.16,2.86,0,5.13-.69,6.76-2.05,1.64-1.38,2.47-3.32,2.47-5.77,0-2.93-1.28-5.03-3.84-6.26l-7.06-2c-2.53-.75-3.94-2-4.19-3.72-.03-.22-.04-.44-.04-.67,0-1.29.47-2.39,1.39-3.25,1.06-1,2.58-1.5,4.5-1.5,1.63,0,2.99.42,4.02,1.24,1.18.93,1.81,2.32,1.88,4.13v.2h2.47v-.21c-.02-2.32-.74-4.21-2.14-5.61-1.5-1.5-3.59-2.26-6.23-2.26s-4.82.72-6.36,2.13c-1.4,1.31-2.1,2.97-2.1,4.95,0,2.96,1.34,5.09,4.01,6.33,2.4.73,4.8,1.45,7.19,2.18,2.51.89,3.73,2.35,3.73,4.46,0,1.47-.48,2.68-1.41,3.59-1.07,1.04-2.63,1.56-4.64,1.56Z"/>
  <polygon class="st1" points="245.24 30.85 248.16 30.85 248.16 5.67 256.34 5.67 256.34 3.11 237.03 3.11 237.03 5.67 245.24 5.67 245.24 30.85"/>
  <path class="st1" d="M288.39,30.85c3.67,0,6.61-1.38,8.75-4.11,1.98-2.53,2.98-5.8,2.98-9.71s-1.01-7.32-3-9.84c-2.14-2.71-5.11-4.08-8.84-4.08s-6.46,1.37-8.56,4.08c-1.97,2.54-2.97,5.85-2.97,9.83s.99,7.19,2.94,9.71c2.11,2.73,5.04,4.11,8.7,4.11ZM281.66,9.09c1.55-2.3,3.8-3.47,6.68-3.47s4.96,1.01,6.54,3.01c1.59,2.01,2.4,4.84,2.4,8.4,0,3.21-.71,5.87-2.11,7.89-1.58,2.26-3.86,3.41-6.79,3.41s-5.18-1.14-6.73-3.38c-1.38-2-2.08-4.67-2.08-7.92s.7-5.89,2.08-7.94Z"/>
  <polygon class="st1" points="320.72 7.84 329.1 30.71 329.15 30.85 331.63 30.85 340.18 7.53 340.18 30.85 343.18 30.85 343.18 3.12 339.09 3.12 330.44 26.8 321.7 3.26 321.64 3.12 317.66 3.12 317.66 30.85 320.72 30.85 320.72 7.84"/>
  <path class="st1" d="M126.11,66.18h5.21c2.87,0,5.19-.55,6.9-1.63,2.17-1.36,3.27-3.54,3.27-6.49,0-5.3-2.9-7.99-8.63-7.99h-9.69v28.46h2.94v-12.36ZM126.11,52.73h6.02c4.4,0,6.54,1.69,6.54,5.18,0,2.18-.64,3.71-1.91,4.56-1.07.72-2.86,1.08-5.33,1.08h-5.33v-10.82Z"/>
  <path class="st1" d="M161.3,65.9h7.4c1.46,0,2.55.19,3.23.55.89.46,1.48,1.36,1.74,2.67.04.23.14,1.2.37,4.54.16,2.28.42,3.8.79,4.66l.06.13h3.59l-.55-.4c-.32-.23-.74-.89-.96-2.73-.07-.55-.12-1.59-.16-3.12-.06-1.94-.23-3.4-.52-4.34-.44-1.47-1.26-2.55-2.42-3.23,1.35-.84,2.34-1.77,2.95-2.78.66-1.09.99-2.49.99-4.14,0-5.06-3.06-7.62-9.1-7.62h-10.27v28.46h2.87v-12.64ZM161.3,52.73h7.44c4.13,0,6.13,1.66,6.13,5.06,0,1.81-.61,3.19-1.8,4.09-1.08.83-2.59,1.25-4.49,1.25h-7.28v-10.41Z"/>
  <path class="st1" d="M215.43,74.32c1.98-2.6,2.98-5.95,2.98-9.97s-1.01-7.51-3-10.09c-2.14-2.78-5.11-4.19-8.84-4.19s-6.47,1.41-8.56,4.19c-1.97,2.61-2.97,6-2.97,10.09s.99,7.38,2.94,9.97c2.11,2.8,5.03,4.21,8.68,4.22h.03c3.66,0,6.6-1.42,8.73-4.22ZM199.95,72.49c-1.38-2.06-2.08-4.8-2.08-8.14s.7-6.05,2.08-8.16c1.55-2.36,3.8-3.56,6.68-3.56s4.96,1.04,6.54,3.09c1.6,2.07,2.4,4.97,2.4,8.62,0,3.3-.71,6.03-2.11,8.11-1.58,2.32-3.86,3.5-6.79,3.5s-5.18-1.17-6.73-3.46Z"/>
  <polygon class="st1" points="239.17 54.95 247.27 78.39 247.32 78.54 249.75 78.54 258.02 54.64 258.02 78.54 260.94 78.54 260.94 50.07 256.96 50.07 248.58 74.37 240.11 50.22 240.06 50.07 236.18 50.07 236.18 78.54 239.17 78.54 239.17 54.95"/>
  <path class="st1" d="M299.1,74.32c1.98-2.6,2.98-5.95,2.98-9.97s-1.01-7.51-3-10.09c-2.14-2.78-5.11-4.19-8.84-4.19s-6.47,1.41-8.56,4.19c-1.97,2.61-2.96,6-2.96,10.09s.99,7.38,2.94,9.97c2.11,2.8,5.03,4.21,8.69,4.22h.03c3.66,0,6.6-1.42,8.73-4.22ZM283.62,72.49c-1.38-2.06-2.08-4.8-2.08-8.14s.7-6.05,2.08-8.16c1.55-2.36,3.79-3.56,6.68-3.56s4.96,1.04,6.54,3.09c1.6,2.07,2.4,4.97,2.4,8.62,0,3.3-.71,6.03-2.11,8.11-1.58,2.32-3.86,3.5-6.79,3.5s-5.18-1.17-6.73-3.46Z"/>
  <polygon class="st1" points="328.98 52.69 337.15 52.69 337.15 50.07 317.85 50.07 317.85 52.69 326.06 52.69 326.06 78.54 328.98 78.54 328.98 52.69"/>
  <rect class="st1" x="354.74" y="50.07" width="2.78" height="28.46"/>
  <path class="st1" d="M397.17,74.32c1.98-2.6,2.98-5.95,2.98-9.97s-1.01-7.51-3-10.09c-2.14-2.78-5.11-4.19-8.84-4.19s-6.47,1.41-8.56,4.19c-1.97,2.61-2.97,6-2.97,10.09s.99,7.38,2.94,9.97c2.11,2.8,5.03,4.21,8.68,4.22h.03c3.66,0,6.6-1.42,8.73-4.22ZM381.69,72.49c-1.38-2.06-2.08-4.8-2.08-8.14s.7-6.05,2.08-8.16c1.55-2.36,3.8-3.56,6.68-3.56s4.96,1.04,6.54,3.09c1.6,2.07,2.4,4.97,2.4,8.62,0,3.3-.71,6.03-2.11,8.11-1.58,2.32-3.86,3.5-6.79,3.5s-5.18-1.17-6.73-3.46Z"/>
  <polygon class="st1" points="435.83 74.1 421.1 50.18 421.04 50.07 418.1 50.07 418.1 78.54 420.99 78.54 420.99 54.63 435.49 78.43 435.55 78.54 438.65 78.54 438.65 50.12 435.83 50.12 435.83 74.1"/>
  <path class="st1" d="M470.86,64.09l-7.06-2.05c-2.54-.77-3.95-2.05-4.19-3.82-.03-.23-.04-.45-.04-.69,0-1.33.47-2.46,1.4-3.35,1.06-1.02,2.58-1.54,4.5-1.54,1.63,0,2.98.43,4.02,1.27,1.18.96,1.81,2.39,1.88,4.25v.2h2.47v-.21c-.02-2.38-.74-4.31-2.14-5.76-1.5-1.54-3.59-2.32-6.23-2.32s-4.83.74-6.36,2.19c-1.39,1.34-2.1,3.05-2.1,5.08,0,3.03,1.34,5.22,4,6.49,2.41.75,4.8,1.49,7.19,2.24,2.51.92,3.73,2.42,3.73,4.59,0,1.51-.48,2.75-1.41,3.69-1.07,1.06-2.64,1.6-4.64,1.6-1.9,0-3.47-.48-4.66-1.44-1.32-1.07-2.12-2.67-2.35-4.77l-.02-.19h-2.45v.21c.06,2.79.94,5,2.64,6.56,1.62,1.47,3.78,2.21,6.44,2.21,2.86,0,5.13-.71,6.76-2.11,1.64-1.41,2.47-3.4,2.47-5.92,0-3-1.28-5.16-3.83-6.42Z"/>
  <path class="st1" d="M206.69,78.54h-.03s.01,0,.02,0,.01,0,.02,0Z"/>
  <rect class="st1" x="247.32" y="78.54" width="2.42" height="0"/>
  <path class="st1" d="M290.36,78.54h-.03s.01,0,.02,0,.01,0,.02,0Z"/>
  <path class="st1" d="M388.44,78.54h-.03s.01,0,.02,0,.01,0,.02,0Z"/>
</svg>